<?xml version="1.0" encoding="UTF-8" standalone="no"?>
<!-- Created with Inkscape (http://www.inkscape.org/) -->

<svg
   width="300mm"
   height="300mm"
   viewBox="0 0 210 297"
   version="1.1"
   id="svg1"
   xml:space="preserve"
   inkscape:version="1.3.2 (091e20e, 2023-11-25)"
   sodipodi:docname="logo.svg"
   xmlns:inkscape="http://www.inkscape.org/namespaces/inkscape"
   xmlns:sodipodi="http://sodipodi.sourceforge.net/DTD/sodipodi-0.dtd"
   xmlns="http://www.w3.org/2000/svg"
   xmlns:svg="http://www.w3.org/2000/svg"><sodipodi:namedview
     id="namedview1"
     pagecolor="#ffffff"
     bordercolor="#000000"
     borderopacity="0.25"
     inkscape:showpageshadow="2"
     inkscape:pageopacity="0.0"
     inkscape:pagecheckerboard="0"
     inkscape:deskcolor="#d1d1d1"
     inkscape:document-units="mm"
     inkscape:zoom="0.5380752"
     inkscape:cx="405.14783"
     inkscape:cy="609.58023"
     inkscape:window-width="1440"
     inkscape:window-height="843"
     inkscape:window-x="0"
     inkscape:window-y="0"
     inkscape:window-maximized="1"
     inkscape:current-layer="layer1" /><defs
     id="defs1" /><g
     inkscape:label="Layer 1"
     inkscape:groupmode="layer"
     id="layer1"><ellipse
       style="fill:#e8f6eb;fill-opacity:1;stroke-width:0.215029"
       id="path2"
       cx="100.99545"
       cy="148.9968"
       rx="143.78056"
       ry="148.58253" /><path
       id="path1"
       style="display:inline;fill:#289019;fill-opacity:1;stroke:none;stroke-width:0.0243093"
       d="m 23.11177,43.166401 c -0.307654,-0.05783 -0.50221,-0.06393 -0.462715,0.0048 C 51.304387,93.034259 38.439256,102.00828 40.566594,146.5927 61.9849,271.91585 141.0918,224.69067 143.1794,238.30407 c 1.81752,13.24196 -1.75053,14.43083 0.31126,15.11809 1.33701,0.43757 3.18458,0.87507 3.69508,0.87507 6.77098,-2.11104 8.59161,-17.19812 7.23056,-21.7045 -3.55873,-11.27934 38.50076,-21.47147 8.76491,-99.59889 C 145.63008,74.802801 79.19519,53.708603 23.11177,43.166401 Z m 6.676579,6.529784 c -1.437553,2.156328 45.786308,25.704477 70.980891,63.443195 25.3519,30.12279 35.20159,65.06265 39.62965,74.6636 7.09566,15.42449 6.87086,15.48945 9.21377,28.60966 -0.48356,39.42184 4.19685,24.1934 -7.91957,-0.22385 C 114.75295,126.78205 63.70954,75.11158 29.699036,49.758893 c -0.045,-0.03354 0.03014,-0.07671 0.08931,-0.06271 z"
       sodipodi:nodetypes="ssccccccssccccsss"
       inkscape:label="path1" /></g></svg>
