<?xml version="1.0" encoding="UTF-8" standalone="no"?>
<svg
   viewBox="0 0 666.66669 666.66669"
   height="66"
   width="66"
   xml:space="preserve"
   id="svg2"
   version="1.1"
   sodipodi:docname="arbolito.svg"
   inkscape:version="1.3.2 (091e20ef0f, 2023-11-25)"
   xmlns:inkscape="http://www.inkscape.org/namespaces/inkscape"
   xmlns:sodipodi="http://sodipodi.sourceforge.net/DTD/sodipodi-0.dtd"
   xmlns="http://www.w3.org/2000/svg"
   xmlns:svg="http://www.w3.org/2000/svg"
   xmlns:rdf="http://www.w3.org/1999/02/22-rdf-syntax-ns#"
   xmlns:cc="http://creativecommons.org/ns#"
   xmlns:dc="http://purl.org/dc/elements/1.1/"><sodipodi:namedview
     id="namedview1"
     pagecolor="#ffffff"
     bordercolor="#000000"
     borderopacity="0.25"
     inkscape:showpageshadow="2"
     inkscape:pageopacity="0.0"
     inkscape:pagecheckerboard="0"
     inkscape:deskcolor="#d1d1d1"
     inkscape:zoom="9.5454545"
     inkscape:cx="32.947619"
     inkscape:cy="33"
     inkscape:window-width="1440"
     inkscape:window-height="847"
     inkscape:window-x="0"
     inkscape:window-y="0"
     inkscape:window-maximized="1"
     inkscape:current-layer="svg2" /><metadata
     id="metadata8"><rdf:RDF><cc:Work
         rdf:about=""><dc:format>image/svg+xml</dc:format><dc:type
           rdf:resource="http://purl.org/dc/dcmitype/StillImage" /></cc:Work></rdf:RDF></metadata><defs
     id="defs6" /><g
     transform="matrix(1.3333333,0,0,-1.3333333,0,666.66667)"
     id="g10"><g
       transform="scale(0.1)"
       id="g12"><path
         id="path16"
         style="fill:#100f0d;fill-opacity:1;fill-rule:nonzero;stroke:none"
         d="m 3721.95,3996.03 c -14.98,-20.64 -11.1,-49.01 -11.1,-49.01 0,0 28.17,5.11 43.15,25.76 14.98,20.65 11.1,49.02 11.1,49.02 0,0 -28.17,-5.12 -43.15,-25.77" /><path
         id="path18"
         style="fill:#100f0d;fill-opacity:1;fill-rule:nonzero;stroke:none"
         d="m 3548.87,4000.82 c 0,0 72.28,-8.64 124.14,30.34 51.85,38.99 63.63,110.83 63.63,110.83 0,0 -72.29,8.64 -124.14,-30.34 -51.85,-38.98 -63.63,-110.83 -63.63,-110.83" /><path
         id="path20"
         style="fill:#100f0d;fill-opacity:1;fill-rule:nonzero;stroke:none"
         d="m 2671.59,3451.92 c 12.82,59.46 -22.93,117.62 -22.93,117.62 0,0 -56.54,-38.25 -69.37,-97.71 -12.82,-59.47 22.93,-117.62 22.93,-117.62 0,0 56.55,38.25 69.37,97.71" /><path
         id="path22"
         style="fill:#100f0d;fill-opacity:1;fill-rule:nonzero;stroke:none"
         d="m 4337.3,2733.78 c 0,0 20.49,-40.84 58.85,-54.5 38.36,-13.65 80.05,5.05 80.05,5.05 0,0 -20.5,40.84 -58.85,54.49 -38.36,13.66 -80.05,-5.04 -80.05,-5.04" /><path
         id="path24"
         style="fill:#100f0d;fill-opacity:1;fill-rule:nonzero;stroke:none"
         d="m 3261.46,2567.25 c 1.95,16.27 1.64,35.22 -4.8,53.61 -16.38,46.72 -65.91,71.88 -65.91,71.88 0,0 -22.99,-50.58 -6.61,-97.3 12.46,-35.56 44.08,-58.58 58.5,-67.58 l -8.45,-17.67 -72.46,-49.81 -65.86,72.59 -36.95,180.01 43.54,103.96 c 13.3,-1.19 47.23,-2.05 74.11,16.23 34.16,23.24 43.83,68.59 43.83,68.59 0,0 -45.73,7.68 -79.9,-15.56 -11.2,-7.62 -19.73,-17.61 -26.18,-27.6 l -3.77,62.55 c 7.34,8.61 29.19,37.09 29.19,70.99 0,40.71 -31.6,73.72 -31.6,73.72 0,0 -31.6,-33.01 -31.6,-73.72 0,-33.3 21.12,-61.42 28.82,-70.56 l -4.3,-71.41 -48.55,-85.92 c 1.19,25.07 -1.37,54.12 -13.42,81.58 -30.17,68.76 -108,101.08 -108,101.08 0,0 -28.91,-79.16 1.27,-147.92 22.64,-51.59 72.1,-82.66 95.39,-94.97 l 13.31,-132.23 -98.4,47.52 -112.69,154.06 76.51,-165.39 c -20.18,0.85 -44.41,-1.43 -66.84,-12.2 -51.37,-24.68 -73.86,-84.55 -73.86,-84.55 0,0 60.79,-19.86 112.16,4.81 28.52,13.7 48.1,38.22 59.91,57.35 l 91.52,-69.3 54.95,-91.96 -259.64,-95.93 -196.02,-135.41 0.71,211.3 0.06,18.03 167.33,334.98 5.29,10.6 0.9,7.72 27.31,233.71 262.51,149.66 12.54,7.15 0.32,1.06 c 5.48,-16.66 14.37,-34.9 28.96,-49.81 28.33,-28.96 69.66,-36.89 87.57,-39.03 l -5.48,-52.47 -0.14,-1.36 0.65,-2.44 44.26,-165.48 18.72,-238.02 z m -851.84,-365.78 -92.15,69.73 -28.35,32.59 -48.88,32.97 -339.14,191.1 54.96,91.96 39.7,30.06 c -10.08,-12.56 -24.21,-34.51 -25.75,-60.39 -2.43,-40.64 27.14,-75.47 27.14,-75.47 0,0 33.51,31.06 35.94,71.7 2.08,34.67 -19.08,65.03 -25.36,73.23 l 25.22,19.1 c 10.28,-9.02 32.62,-25.58 59.65,-27.21 37.29,-2.24 69.26,24.89 69.26,24.89 0,0 -28.49,30.76 -65.79,33 -9.29,0.56 -18.25,-0.71 -26.47,-2.93 l 1.64,1.24 1.23,2.66 35.51,114.49 -47.58,-65.04 c 5.53,14.8 10.05,34.39 6.6,54.56 -7.06,41.4 -44.91,69.47 -44.91,69.47 0,0 -26.4,-39.04 -19.34,-80.43 5.68,-33.29 31.24,-57.92 41.04,-66.31 l -1.02,-1.4 -98.4,-47.52 14.13,140.39 0.58,5.77 -2.01,3.56 -27.19,48.12 c 17.33,6.11 43.87,18.75 60.83,42.53 26.91,37.74 19.43,89.23 19.43,89.23 0,0 -51.11,-9.72 -78.02,-47.46 -12.3,-17.25 -17.38,-37.33 -19.31,-54.09 l -28.44,50.34 -6.88,114.4 -5.74,-95.4 c -8.56,11.93 -22.05,26.53 -40.66,34.2 -34.75,14.33 -74.04,-1.03 -74.04,-1.03 0,0 17.05,-38.59 51.81,-52.91 22.69,-9.36 47.25,-6.05 61.61,-2.64 l 0.73,-1.74 55.31,-132.08 -9.67,-47.09 c -5.09,12.53 -12,25.06 -21.5,36.34 -39.53,46.96 -108.03,54.34 -108.03,54.34 0,0 -4.4,-68.75 35.14,-115.71 23.08,-27.41 55.95,-41.28 79.38,-48.13 l -12.27,-59.76 -65.86,-72.59 -72.46,49.81 -45.98,96.2 18.72,238.03 44.26,165.47 1.21,4.52 -1.85,3.07 -23.57,39.29 c 19.13,2.61 57.82,11.12 84.77,38.67 19.96,20.41 29.3,47.03 33.72,67.29 l 134.5,-134.01 63.16,-184.97 1.01,-2.96 4.15,-6.95 60.37,-101.14 v 0 l 56.09,-93.97 2.85,-3.97 235.39,-376.41 z M 4610.6,3276.89 c 0,0 -46.2,-9.14 -70.29,-43.49 -17.61,-25.1 -18.54,-56.64 -17.77,-71.85 l -94.23,-44.28 c 17.13,17.18 36.32,42.16 44.14,73.17 15.53,61.59 -19.68,123.58 -19.68,123.58 0,0 -60.4,-37.88 -75.93,-99.47 -11.96,-47.43 6.12,-94.96 15.1,-114.38 l -196.58,-92.39 -79.68,-2.07 c 20.48,9.02 44.15,23.44 61.19,46.1 36.55,48.62 28.45,116.4 28.45,116.4 0,0 -67.37,-11.05 -103.92,-59.67 -27,-35.9 -29.63,-82.18 -29.16,-103.97 l -118.06,-3.07 35.22,84.86 2.17,5.21 209.43,206.12 52.23,23.71 c 9.45,-11.71 31.73,-35.36 62.38,-42.35 41.25,-9.4 81.99,14.99 81.99,14.99 0,0 -26.14,39.64 -67.4,49.04 -8.42,1.93 -16.8,2.39 -24.84,1.98 l 42.2,19.16 c 12.71,-1.61 48.22,-4.01 76.72,14.2 35.36,22.6 46.49,68.36 46.49,68.36 0,0 -46.2,9.12 -81.56,-13.47 -27.71,-17.72 -40.5,-49.57 -44.75,-62.55 l -143.01,-50.94 c 17.02,12.74 55.7,46.08 67.7,93.67 15.54,61.59 -19.68,123.58 -19.68,123.58 0,0 -60.39,-37.88 -75.93,-99.47 -13.76,-54.59 12.28,-109.38 18.4,-121.17 l -0.88,-0.31 -1.53,-0.55 -1.71,-1.52 -58.13,-51.94 c 6.12,14.69 11.91,35.49 8.35,57.06 -6.63,40.17 -43.19,67.58 -43.19,67.58 0,0 -25.8,-37.71 -19.16,-77.88 4.89,-29.62 26.02,-52.26 36.79,-62.14 l -135.61,-121.16 -13.87,23.39 c 8.65,9.69 49.5,58.57 49.5,117.56 0,65.96 -51.19,119.44 -51.19,119.44 0,0 -51.19,-53.48 -51.19,-119.44 0,-12.96 2.02,-25.41 5.19,-37.1 l -54.91,92.65 162.57,132.13 1.96,1.59 0.2,2.13 0.27,2.68 c 13.34,-5.61 46.58,-17.03 79,-7.58 41.79,12.19 66.21,54.51 66.21,54.51 0,0 -43.34,22.56 -85.14,10.37 -28.25,-8.24 -48.53,-30.22 -58.73,-43.62 l 11.32,115.04 c 0.69,-1.37 1.12,-2.14 1.12,-2.14 0,0 41.97,26.08 52.92,68.74 10.94,42.65 -13.29,85.72 -13.29,85.72 0,0 -41.98,-26.09 -52.92,-68.74 -8.3,-32.33 3.61,-64.86 9.86,-78.73 l -21.17,-132.36 -55.76,-38.53 c 14.93,21.56 34.45,57.49 34.45,98.23 0,65.96 -51.19,119.43 -51.19,119.43 0,0 -51.2,-53.47 -51.2,-119.43 0,-52.93 32.93,-97.75 45.95,-113.42 l -96.32,-66.56 c -4.67,11.19 -11.47,22.84 -21.53,32.45 -29.43,28.14 -75.13,28.1 -75.13,28.1 0,0 2.03,-45.65 31.46,-73.78 20.11,-19.22 47.79,-25.29 63.32,-27.2 l 50.81,-97.78 c -16.63,12.73 -39.81,26.12 -66.84,29.51 -54.99,6.9 -104.92,-30.19 -104.92,-30.19 0,0 39.22,-48.27 94.21,-55.17 39.85,-5 76.94,13.06 94.4,23.41 l 39.41,-75.84 -50.65,-102.1 -219.78,-92.83 -29.88,123.32 c 13.34,8.42 32.51,23.65 42.09,46.11 15.56,36.47 -0.13,78.12 -0.13,78.12 0,0 -40.93,-17.49 -56.49,-53.97 -0.57,-1.34 -1.02,-2.7 -1.51,-4.05 l -0.05,0.22 c -9.05,37.29 -17.51,74.69 -25.93,112.09 l 64.69,157.6 109.08,79.8 c 0.01,-0.02 0.02,-0.1 0.02,-0.1 0,0 37.19,8.81 55.69,37.39 18.5,28.59 11.32,66.12 11.32,66.12 0,0 -37.19,-8.81 -55.69,-37.39 -14.59,-22.54 -13.21,-50.56 -11.97,-61.44 l -78.93,-42.98 c 8.4,11.33 16.01,25.11 19.59,40.94 10.35,45.8 -16.81,90.96 -16.81,90.96 0,0 -43.93,-29.1 -54.28,-74.9 -7.12,-31.52 3.52,-62.73 10.85,-79.14 l -4.31,-2.34 -2.52,-1.37 -1.77,-3.56 -57.31,-115.14 c -6.26,28.1 -12.52,56.21 -18.92,84.29 l 77.27,189.77 107.82,67.57 c 8.18,-6.46 39.45,-28.99 75.51,-27.29 42.03,1.98 74.57,36.22 74.57,36.22 0,0 -35.62,31.01 -77.65,29.03 -5.24,-0.25 -10.33,-1 -15.23,-2.12 l 88.97,55.76 c 0,-0.02 0,-0.11 0,-0.11 0,0 38.4,1.29 62.32,25.77 23.92,24.49 24.31,62.9 24.31,62.9 0,0 -38.4,-1.28 -62.32,-25.77 -19.18,-19.63 -23.22,-48.17 -24.07,-58.73 l -265.7,-149.77 -1.75,-0.99 -1.59,-2.59 -104.84,-171.28 -42.96,19.13 c 10.27,8.64 24.07,23.19 29.58,42.52 9.23,32.42 -8.44,65.86 -8.44,65.86 0,0 -32.64,-19.11 -41.87,-51.53 -5.04,-17.7 -2.05,-35.67 1.69,-48.37 l -29.65,13.2 -3.31,1.47 -1.87,-0.23 -92.65,-11.41 88.81,-10.93 89.64,-51.61 12.12,-97.67 c -18.18,23.04 -46.44,50.96 -84.3,64.57 -70.66,25.4 -147.66,-8.85 -147.66,-8.85 0,0 37.58,-75.44 108.24,-100.84 49.48,-17.78 101.97,-6.33 129.05,2.14 l 14.99,-120.8 28.66,-216.11 -6.91,-7.62 -221.19,-243.85 -6.81,38.11 c 11.7,6.46 30.62,19.46 40.22,40.03 14.48,31.02 2.14,67.4 2.14,67.4 0,0 -35.81,-13.92 -50.29,-44.94 -0.85,-1.81 -1.59,-3.65 -2.26,-5.5 l -26.16,146.36 20.58,26.71 c 22.81,-9.62 66.39,-23.5 109.87,-12.66 62.95,15.69 101.79,77.27 101.79,77.27 0,0 -63.21,36.12 -126.15,20.43 -10.07,-2.51 -19.44,-6.28 -28.22,-10.7 l 42.47,55.11 1.83,2.37 0.34,1.79 24.32,128.69 -45.18,-119.58 -116.47,-133.48 -36.75,81.06 c 14.39,6.56 38.35,20.39 51.66,44.21 19.86,35.54 8.38,79.76 8.38,79.76 0,0 -43.69,-13.39 -63.55,-48.93 -7.69,-13.76 -10.65,-28.79 -11.44,-42.08 l -6.86,15.14 12.31,253.66 c 6.23,7.93 30.07,40.86 28.05,78.68 -2.33,43.48 -37.95,76.92 -37.95,76.92 0,0 -31.86,-37.05 -29.54,-80.52 1.95,-36.41 27.18,-65.69 35.35,-74.28 l -17.58,-168.24 c -4.86,19.41 -14.25,43.17 -32.43,61.76 -22.51,23.01 -53.22,32.72 -73.9,36.83 l 64.21,206.65 194.43,186.37 c 11.37,-18.78 32.71,-46.88 64.82,-60.93 50.77,-22.21 109.17,-0.82 109.17,-0.82 0,0 -23.91,57.42 -74.69,79.64 -24.47,10.7 -50.65,11.25 -71.27,8.97 l 22.69,21.76 170.62,34.33 2.27,0.45 1.41,0.99 45.4,31.85 c 14.73,-12.21 56.3,-42.62 105.38,-42.62 61.39,0 111.16,47.65 111.16,47.65 0,0 -49.77,47.64 -111.16,47.64 -13.79,0 -26.94,-2.48 -39.13,-6.21 l 87.75,61.55 c 14.12,0.71 45.79,4.65 68.85,25.03 30.5,26.97 34.29,72.5 34.29,72.5 0,0 -45.65,1.81 -76.16,-25.15 -28.48,-25.19 -33.67,-66.54 -34.23,-71.9 l -63.26,-38.78 c 8.22,9.9 15.82,22.01 19.95,36.16 12.19,41.8 -10.37,85.14 -10.37,85.14 0,0 -42.32,-24.42 -54.51,-66.22 -9.25,-31.73 1.51,-64.31 7.24,-78.18 l -99.8,-61.16 -2.3,-0.32 c 8.72,9.87 17.08,22.44 21.33,37.37 11.15,39.15 -10.2,79.55 -10.2,79.55 0,0 -39.43,-23.09 -50.58,-62.25 -6.26,-21.99 -2.27,-44.37 2.43,-59.76 l -136.2,-18.75 -3.9,-0.53 -3.71,-3.15 -185.37,-156.91 55.39,136.48 0.65,1.6 0.19,0.71 26.06,95.76 c 20.23,-0.76 69.27,0.74 106.95,29.07 48.62,36.55 59.66,103.92 59.66,103.92 0,0 -67.78,8.1 -116.4,-28.45 -12.68,-9.53 -22.75,-21.17 -30.79,-33.15 l 24.18,88.87 126.32,41.29 0.5,0.17 c 10.02,-16.99 39.88,-61.27 87.76,-78.48 59.77,-21.48 124.91,7.49 124.91,7.49 0,0 -31.78,63.82 -91.56,85.3 -45.62,16.4 -94.26,3.43 -114.79,-3.64 l 50.6,123.55 c 10.89,5.84 42.16,24.9 54.96,57.11 15.62,39.32 -2.23,83.32 -2.23,83.32 0,0 -43.18,-19.75 -58.81,-59.07 -15.62,-39.32 2.23,-83.32 2.23,-83.32 0,0 0.16,0.08 0.23,0.11 l -58.97,-122.32 -61.63,-12.08 c 10.26,12.57 33.64,45.42 33.64,84.09 0,49.51 -38.42,89.64 -38.42,89.64 0,0 -38.42,-40.13 -38.42,-89.64 0,-40.36 25.53,-74.48 34.96,-85.7 l -66.51,-13.04 -1.05,-0.21 c 5.59,26.42 9.5,66.84 -5.88,104.49 -25.63,62.77 -95.13,93.76 -95.13,93.76 0,0 -27.94,-70.78 -2.31,-133.56 20.98,-51.37 71.29,-81.43 88.89,-90.66 l -60.63,-183.19 -71.24,235.04 -0.67,2.19 -1.02,1.26 -58.92,72.66 c 8.66,10.1 35.73,44.99 35.73,86.6 0,49.51 -38.42,89.64 -38.42,89.64 0,0 -38.42,-40.13 -38.42,-89.64 0,-19.47 5.96,-37.44 13.18,-52.14 l -70.04,86.37 138.81,-204.05 71.79,-285.81 -105.16,-230.92 0.78,-0.34 -0.68,-1.81 -86.38,-227.4 -207.7,-101.97 7.6,65.11 117.69,168.02 3.5,4.98 0.45,1.38 29.22,88.14 c 15.87,-2.83 41.82,-4.71 65.22,6.26 36.86,17.29 53.32,59.91 53.32,59.91 0,0 -43.3,14.6 -80.16,-2.69 -8.58,-4.02 -16,-9.44 -22.42,-15.35 l 30.37,91.62 c 7.9,7.23 28.86,28.82 32.65,57.13 4.69,35.02 -18.69,67.05 -18.69,67.05 0,0 -30.98,-24.75 -35.67,-59.77 -3.5,-26.18 8.68,-50.68 15.05,-61.38 l -90.61,-155.5 c -0.29,16.32 -3.01,34.28 -10.82,51.31 -22.87,49.86 -80.11,72.54 -80.11,72.54 0,0 -20.16,-58.17 2.7,-108.04 14.27,-31.11 41.92,-51.63 60.69,-62.67 l -91.81,-96.03 -62.12,176.48 52.5,144.45 0.65,1.79 c 18.05,-2.44 74.83,-7.13 120.15,21.92 54.61,35.01 71.71,105.78 71.71,105.78 0,0 -71.44,14 -126.05,-21.01 -10.1,-6.47 -18.9,-14.18 -26.57,-22.42 l 50.97,99.84 55.08,34.86 c 13.83,-11.91 40.04,-30.45 71.58,-32.87 46.92,-3.6 87.75,29.9 87.75,29.9 0,0 -35.25,39.34 -82.17,42.93 -4.79,0.37 -9.49,0.27 -14.12,-0.06 l 98.54,62.37 -54.46,-28.62 c 8.99,10.64 19.64,26.85 22.23,46.23 4.69,35.02 -18.69,67.05 -18.69,67.05 0,0 -30.98,-24.75 -35.67,-59.77 -3.6,-26.93 9.36,-52.03 15.56,-62.21 l -65.37,-34.34 c -10.92,-4.51 -19.97,-9.72 -26.24,-13.79 l -53,-27.84 c 12.34,23.88 25.14,58.44 21.93,95.56 -5.89,68.23 -63.62,118.97 -63.62,118.97 0,0 -48.18,-59.88 -42.28,-128.11 4.66,-54 41.7,-96.92 56.98,-112.53 l -72,-119.52 -30.44,191.97 42.55,190.34 c 12.35,-4.31 51.84,-15.86 88.09,-1.85 43.62,16.85 65.91,64.38 65.91,64.38 0,0 -48.45,20.2 -92.08,3.34 -29.4,-11.36 -49.06,-36.6 -58.79,-51.88 l 17.03,76.18 128.62,72.4 c 10.67,-0.93 33.06,-1.09 51.28,10.77 24.84,16.17 32.43,48.56 32.43,48.56 0,0 -32.69,6.17 -57.53,-10 -24.84,-16.18 -32.42,-48.56 -32.42,-48.56 0,0 0.83,-0.15 2.2,-0.33 l -78.25,-38.15 c 8.83,10.64 18.99,26.49 21.52,45.36 4.68,35.02 -18.69,67.05 -18.69,67.05 0,0 -30.98,-24.75 -35.67,-59.77 -3.5,-26.14 8.64,-50.6 15.02,-61.33 l -35.92,-17.51 -2.07,-1.01 -0.72,-2.52 -71.11,-248.2 -95.4,134.42 -2.89,4.07 -3.48,0.42 c 13.43,8.88 38.56,28.72 48.68,58.28 14.11,41.19 -6.43,85.52 -6.43,85.52 0,0 -43.4,-22.44 -57.5,-63.63 -10.82,-31.59 -1.28,-64.94 3.76,-78.82 l -53.89,6.37 c 1.61,3.97 21.39,54.33 3.92,100.13 -18.2,47.72 -69.99,72.27 -69.99,72.27 0,0 -22.28,-52.8 -4.08,-100.52 16.74,-43.89 61.8,-68.13 68.93,-71.74 l -54.21,6.4 111.54,-33.29 31.45,-52.22 c -12.2,9.31 -27.57,18.02 -45.36,21.65 -46.03,9.39 -90.63,-18.72 -90.63,-18.72 0,0 30.03,-43.34 76.06,-52.73 33.56,-6.84 66.29,6.23 81.59,13.82 l 47.14,-78.29 1.6,1.05 11.45,-116.22 c -14.31,22.75 -40.94,56.57 -80.38,73.08 -62.55,26.18 -133.57,-1.14 -133.57,-1.14 0,0 30.38,-69.77 92.93,-95.95 48.51,-20.31 101.97,-8.45 123.59,-2.1 l 9.26,-94.06 -35.98,-83.31 -16.67,47.34 -2.88,8.19 -5.3,4.17 -188.34,148.2 c 5.03,11.29 18.69,46.84 8.61,81.4 -12.19,41.8 -54.51,66.22 -54.51,66.22 0,0 -22.56,-43.34 -10.37,-85.14 3.35,-11.49 9.01,-21.62 15.42,-30.34 l -52.2,41.07 -24.36,174.75 c 9.13,2.31 47.42,13.55 68.39,44.15 23.92,34.9 16.23,81.76 16.23,81.76 0,0 -46.48,-9.73 -70.4,-44.63 -13.27,-19.37 -16.8,-42.39 -17.32,-59.07 l -17.39,124.68 c 3.62,9.58 10.23,31.93 3.29,53.3 -9.16,28.19 -38.46,43.93 -38.46,43.93 0,0 -14.45,-29.96 -5.3,-58.15 8.55,-26.29 34.59,-41.74 38.06,-43.7 l 12.86,-194.97 c -10.59,16.88 -28.29,38.75 -53.94,50.72 -45.67,21.31 -99.23,3.14 -99.23,3.14 0,0 20.49,-52.72 66.15,-74.03 33.41,-15.58 70.95,-10.05 88.74,-5.95 l 6.89,-104.47 0.33,-4.88 4.33,-3.95 121.72,-111 c -18.75,6.73 -40.85,11.4 -64,9.32 -63.12,-5.68 -109.88,-59.27 -109.88,-59.27 0,0 55.57,-44.39 118.69,-38.71 45.2,4.07 81.9,32.63 99.16,48.56 l 96.08,-87.62 94.83,-348.29 -77.48,-405.06 -154.48,-260.1 -66.29,77.51 83.5,212.07 2.16,5.48 0.15,0.85 19.67,115.35 c 13.5,-0.73 51.64,-0.57 80.62,21.1 35.82,26.79 44.06,76.3 44.06,76.3 0,0 -49.83,6.09 -85.64,-20.7 -16.16,-12.09 -26.67,-28.77 -33.38,-43.48 l 35.8,209.91 c 8.25,10.4 24.65,34.62 24.65,62.85 0,37.71 -29.27,68.28 -29.27,68.28 0,0 -29.27,-30.57 -29.27,-68.28 0,-27.91 16,-51.86 24.33,-62.46 l -34.81,-100.94 c -0.92,17.16 -5.06,40.54 -18.97,60.06 -25.38,35.59 -73.56,44.74 -73.56,44.74 0,0 -7.05,-48.54 18.32,-84.12 19.45,-27.29 52.24,-39 66.52,-43 l -60.47,-175.35 -29.2,31.19 c 4.11,5.12 28.73,37.42 26.5,74.69 -2.43,40.64 -35.94,71.7 -35.94,71.7 0,0 -29.57,-34.83 -27.14,-75.48 1.34,-22.39 12.1,-41.83 21.51,-54.81 l -39.69,42.39 3.63,190.54 -22.24,-96.2 c -2.4,15.68 -8.03,35.16 -21,51.2 -26.41,32.64 -73.16,38.61 -73.16,38.61 0,0 -3.93,-46.96 22.48,-79.61 19.81,-24.48 51.06,-33.96 65.44,-37.17 l -13.11,-56.7 c -17.05,8.08 -39.05,15.11 -62.64,13.69 -51.94,-3.12 -91.63,-45.97 -91.63,-45.97 0,0 44.53,-37.79 96.48,-34.67 26.18,1.58 49.23,13.24 65.67,24.42 l 84.26,-124.79 -74.41,-130.09 -118.09,138.07 2.85,-3.96 -72.91,99.7 122.65,329.55 c 14.37,-8.1 59.34,-30.36 105.95,-21.43 56.53,10.82 93.96,63.47 93.96,63.47 0,0 -54.23,35.11 -110.76,24.28 -38.7,-7.41 -68.42,-34.4 -83.34,-50.71 l 14.43,38.77 135.68,139.7 -63.8,-31.66 c 8.29,9.86 16.11,22.25 20.02,36.81 10.55,39.32 -11.41,79.39 -11.41,79.39 0,0 -39.08,-23.68 -49.63,-63.01 -7.46,-27.8 1.31,-55.9 7.1,-70.02 l -49.01,-24.33 -83.63,252.15 -2.23,6.73 -3.13,3.06 c 22.28,13.89 59.17,42.08 76.04,84.58 25.01,63.03 -3.64,133.53 -3.64,133.53 0,0 -69.18,-31.69 -94.19,-94.71 -13.4,-33.78 -11.37,-69.6 -6.62,-95.67 l -120.02,117.15 55.27,158.03 1.04,2.97 -0.02,0.11 c 18.78,6.41 59.82,23.91 82.97,60.14 30.71,48.05 18.31,110.83 18.31,110.83 0,0 -62.18,-15.12 -92.88,-63.17 -10.2,-15.96 -15.58,-33.51 -18.31,-49.88 l -32.73,191.44 6.63,-76.95 c -9.22,12.95 -27.17,33.56 -52.78,42.1 -38.63,12.88 -79.93,-6.65 -79.93,-6.65 0,0 21.31,-40.42 59.93,-53.3 29.84,-9.95 61.2,-0.58 73.95,4.21 l 13.47,-156.19 -61.49,-137.76 -47.95,46.8 c 10.71,13.41 32.67,45.46 32.67,82.91 0,49.5 -38.42,89.63 -38.42,89.63 0,0 -38.42,-40.13 -38.42,-89.63 0,-19.92 6.24,-38.26 13.67,-53.14 l -51.74,50.5 -59.92,153.76 c 0.4,-0.2 0.67,-0.32 0.67,-0.32 0,0 17.85,44 2.22,83.32 -15.62,39.32 -58.81,59.07 -58.81,59.07 0,0 -17.85,-44 -2.22,-83.32 11.48,-28.9 37.79,-47.18 50.97,-54.86 l 28.66,-93.91 c -8.57,12.79 -19.32,25.2 -32.85,35.37 -51.85,38.98 -124.13,30.34 -124.13,30.34 0,0 11.77,-71.84 63.63,-110.83 42.83,-32.2 99.5,-31.9 117.95,-30.82 l 277.13,-314.59 69.9,-279.75 -139.36,-302.57 -71.03,158.09 -2.47,5.5 16.66,144.7 c 19.34,-7.86 50.77,-16.84 82.52,-9.71 51.27,11.5 83.9,60.61 83.9,60.61 0,0 -50.48,30.46 -101.75,18.96 -25.28,-5.67 -46.01,-20.49 -60.55,-34.06 l 16.1,139.81 0.79,6.83 -3.03,4.1 -13.31,17.99 c 13.87,10.4 32.97,28.36 41.47,53.18 14.1,41.19 -6.43,85.52 -6.43,85.52 0,0 -43.4,-22.44 -57.5,-63.63 -4.44,-12.94 -5.44,-26.19 -4.74,-38.28 l -76.53,103.48 c 4.59,11.35 12.17,35.5 5.44,59.15 -9.23,32.42 -41.87,51.53 -41.87,51.53 0,0 -17.68,-33.44 -8.45,-65.85 7.78,-27.33 32.13,-45.14 39.6,-50.09 l 93.48,-163.63 -63.56,-268.57 -64.01,53.85 c 18.64,17.19 51.81,53.53 60.1,100.89 11.7,66.79 -30.66,130.01 -30.66,130.01 0,0 -61.32,-45.07 -73.01,-111.86 -6.04,-34.52 2.35,-68 11.88,-92.38 l -117.61,98.94 -37.88,42.64 12.05,50.54 c 23.62,-7.03 66.11,-15.37 106.28,-0.93 59.78,21.48 91.56,85.29 91.56,85.29 0,0 -65.13,28.98 -124.91,7.5 -25.69,-9.24 -46.16,-26.28 -61.21,-42.72 l 27.42,115.01 0.61,2.59 -0.34,2.03 -22.65,79.69 c 3.55,1.71 39.01,19.4 52.23,52.89 13.93,35.26 -2.15,74.66 -2.15,74.66 0,0 -38.66,-17.78 -52.59,-53.05 -7.21,-18.25 -6.37,-37.57 -3.89,-52 l -78.38,275.82 c 3.84,11.09 14.64,48.14 0.56,80.64 -16.77,38.72 -62.52,56.18 -62.52,56.18 0,0 -18.57,-45.32 -1.8,-84.03 16.77,-38.72 62.52,-56.18 62.52,-56.18 0,0 0.11,0.28 0.28,0.71 l 26.6,-117.2 c -5.98,10.65 -14.16,21.52 -25.37,29.95 -32.62,24.52 -78.11,19.09 -78.11,19.09 0,0 7.42,-45.2 40.04,-69.73 25.79,-19.39 59.52,-20.05 72.56,-19.48 l 33.41,-147.16 c -9.13,18.38 -22.57,38.2 -42.25,53 -48.62,36.55 -116.41,28.45 -116.41,28.45 0,0 11.05,-67.37 59.67,-103.92 40.21,-30.23 93.41,-29.92 110.66,-28.91 l 4.56,-20.1 -55.57,-188.09 -103.38,116.37 -49.11,338.65 c 8.27,10.06 27.96,37.35 27.96,69.53 0,40.71 -31.6,73.72 -31.6,73.72 0,0 -31.6,-33.01 -31.6,-73.72 0,-28.72 15.69,-53.55 24.96,-65.71 l 4.65,-70 c -2.8,18.85 -11.87,58.34 -40.41,85.32 -38.64,36.52 -98.31,36.14 -98.31,36.14 0,0 2.97,-59.6 41.62,-96.13 36.87,-34.85 92.76,-36.1 97.82,-36.14 l 8.37,-125.92 c -1.18,13.35 -5.26,33.87 -18.59,49.89 -21.57,25.9 -59.15,30.15 -59.15,30.15 0,0 -2.62,-37.73 18.94,-63.63 21.57,-25.9 59.15,-30.16 59.15,-30.16 0,0 0.22,3.37 -0.02,8.71 l 9.36,-140.79 0.31,-4.76 3.76,-5.02 156.75,-209.56 0.54,-0.72 2.4,-2.39 74.84,-74.56 c -20.21,-4.83 -46.83,-14.75 -66.92,-35.29 -24.34,-24.89 -32.92,-59.01 -35.97,-79.53 l -77.54,129.21 c 0.59,8.9 1.49,43.9 -18.33,69.88 -22.88,29.98 -64.69,36.53 -64.69,36.53 0,0 -4.73,-42.06 18.15,-72.04 18.19,-23.84 48.27,-32.84 59.87,-35.54 l 97.86,-188.75 -30.65,-67.58 c 0.91,15.99 -0.52,38.11 -11.44,57.64 -19.86,35.54 -63.55,48.94 -63.55,48.94 0,0 -11.48,-44.23 8.39,-79.77 15.38,-27.52 44.96,-41.72 57.57,-46.74 l -17.97,-39.64 -115.92,132.86 -45.73,191.22 8.63,-71.23 c -2.41,4.67 -5.25,9.24 -8.74,13.52 -23.74,29.15 -65.61,34.35 -65.61,34.35 0,0 -3.37,-42.05 20.37,-71.2 18.92,-23.23 49.31,-31.23 60.88,-33.53 l 8.55,-70.55 0.3,-2.49 2.11,-2.74 57.54,-74.66 c -15.94,12.91 -35.88,24.99 -59.15,30.79 -62.94,15.7 -126.15,-20.43 -126.15,-20.43 0,0 38.84,-61.58 101.79,-77.27 52.73,-13.15 105.51,10.02 121.28,17.89 l 25.03,-32.48 -21.04,-117.72 c -0.97,7.19 -2.83,14.6 -6.16,21.73 -14.48,31.02 -50.29,44.93 -50.29,44.93 0,0 -12.34,-36.38 2.14,-67.4 11.6,-24.86 36.85,-38.7 46.45,-43.23 l -14.26,-79.77 -221.19,243.85 -6.92,7.63 34.54,260.47 1.12,8.45 -0.94,4.18 c -5.75,25.79 -11.65,51.57 -17.52,77.35 28.6,7.14 75.23,23.87 106.89,61.36 48.45,57.37 43.2,141.48 43.2,141.48 0,0 -83.8,-8.91 -132.25,-66.28 -17.07,-20.21 -27.38,-43.71 -33.69,-65.71 -1.84,8.29 -3.76,16.57 -5.56,24.87 l 33.99,173.56 c 14.35,-3.72 45.44,-9.25 73.46,3.02 37.93,16.59 55.8,59.48 55.8,59.48 0,0 -43.63,15.98 -81.55,-0.61 -19.49,-8.53 -33.64,-23.97 -42.83,-36.99 l 11.72,59.84 -0.42,-1.44 41.78,148.49 -30.5,-67.88 c 5.31,23.7 7.85,53.14 -0.43,82.21 -18.49,64.95 -83.9,103.25 -83.9,103.25 0,0 -35.41,-67.01 -16.92,-131.96 15.82,-55.54 65.81,-91.5 80,-100.78 l -11.48,-25.55 -0.15,-0.33 -0.27,-1.12 -45.07,-185.57 -32.93,154.23 -0.95,4.47 -3.24,1.83 -4.67,2.63 c 7.33,16.26 18.26,47.75 11.06,79.6 -10.35,45.8 -54.28,74.9 -54.28,74.9 0,0 -27.16,-45.16 -16.81,-90.96 3.54,-15.68 11.04,-29.34 19.34,-40.61 l -205.56,115.87 c -0.2,5.47 -2.33,39.59 -24.28,62.06 -23.92,24.49 -62.32,25.77 -62.32,25.77 0,0 0.29,-23.74 12.03,-45.8 l -2.3,1.3 2.41,-1.51 c 3.17,-5.92 7.12,-11.72 12.17,-16.89 17.36,-17.77 42.28,-23.3 54.68,-25.01 l 87.57,-54.88 c -2.04,0.26 -4.09,0.49 -6.19,0.59 -42.03,1.98 -77.65,-29.03 -77.65,-29.03 0,0 32.54,-34.23 74.57,-36.22 32.61,-1.54 61.27,16.73 72.53,25.03 l 94.84,-59.44 5,-69.31 c -8.48,10.54 -23.59,25.66 -43.99,31.61 -32.69,9.53 -66.59,-8.12 -66.59,-8.12 0,0 19.11,-33.09 51.8,-42.62 23.85,-6.96 48.29,0.55 59.79,5.12 l 8.64,-119.88 c 4.4,-66.18 10.95,-132.13 16.49,-198.25 l -55.65,-229.76 -88.27,37.28 c 3.11,15.47 5.24,39.58 -4.25,61.82 -15.56,36.48 -56.48,53.97 -56.48,53.97 0,0 -15.7,-41.65 -0.13,-78.13 2.45,-5.74 5.57,-10.96 9.02,-15.77 l -79.67,33.65 -50.65,102.1 98.36,189.31 c 20.08,-4.49 66.24,-11.33 106.67,8.4 53.39,26.06 76.45,88.63 76.45,88.63 0,0 -63.51,20.31 -116.91,-5.75 -21.08,-10.29 -37.36,-26.26 -49.43,-41.83 l -0.4,0.45 -51.52,56.41 c 12.29,6.32 36.57,21.39 48.24,46.59 15.99,34.52 2.15,74.92 2.15,74.92 0,0 -39.76,-15.58 -55.74,-50.1 -9.74,-21.03 -8.41,-44.17 -5.89,-59.11 l -31.12,34.09 -32.73,144.54 c 0.05,-0.02 0.14,-0.08 0.14,-0.08 0,0 16.06,28.54 8.81,56.81 -7.25,28.27 -35.07,45.56 -35.07,45.56 0,0 -16.064,-28.54 -8.81,-56.81 5.89,-22.96 25.35,-38.68 32.45,-43.77 l 13.42,-81.42 c -11.61,15.7 -36.36,43.67 -71.429,53.89 -49.82,14.53 -101.484,-12.36 -101.484,-12.36 0,0 29.113,-50.44 78.933,-64.97 40.336,-11.77 81.86,3.61 96.22,9.9 l 9.06,-54.97 0.18,-1.09 0.95,-1.33 75.35,-106.27 -36.75,-62 c -0.6,65.42 -51.14,118.28 -51.14,118.28 0,0 -51.19,-53.47 -51.19,-119.44 0,-45.39 24.24,-84.87 39.36,-105.07 l -14.69,-24.78 -90.647,130.95 -1.875,2.71 -2.242,1.01 -12.621,5.73 c 11.305,11.53 27.285,31.72 31.457,56.97 6.633,40.17 -19.164,77.88 -19.164,77.88 0,0 -36.555,-27.41 -43.187,-67.58 -3.563,-21.56 2.222,-42.35 8.343,-57.05 l -72.332,32.81 c 8.254,17.05 29.188,67.4 16.555,117.5 -15.535,61.6 -75.93,99.47 -75.93,99.47 0,0 -35.211,-61.99 -19.679,-123.58 9.226,-36.6 34.242,-64.72 53.07,-81.61 l -85.945,38.98 c 0.496,0.09 0.836,0.15 0.836,0.15 0,0 -11.125,45.76 -46.481,68.35 -35.355,22.6 -81.555,13.48 -81.555,13.48 0,0 11.125,-45.76 46.481,-68.36 30.73,-19.64 69.621,-15.31 79.273,-13.85 l 37.567,-20.95 c -14.801,4.27 -33.512,7.05 -52.375,2.75 -41.254,-9.4 -67.399,-49.04 -67.399,-49.04 0,0 40.739,-24.39 81.993,-14.99 34.371,7.83 58.191,36.58 65.203,45.98 l 143.597,-80.1 87.66,-150.35 -1.156,-1.95 4.406,-10.62 35.227,-84.86 -103.434,2.69 c -0.043,23.26 -4.023,65.85 -29.211,99.36 -36.554,48.62 -103.921,59.66 -103.921,59.66 0,0 -8.102,-67.78 28.449,-116.4 14.23,-18.93 33.117,-32.11 50.89,-41.21 l -83.953,2.19 -151.922,71.4 c -7.363,4.32 -15.988,8.58 -25.488,11.98 l -5.301,2.49 c 8.672,18.35 28.086,67.18 15.801,115.89 -15.535,61.59 -75.93,99.47 -75.93,99.47 0,0 -35.21,-61.99 -19.679,-123.58 8.394,-33.28 29.855,-59.56 47.84,-76.76 l -98.032,46.08 c 0.926,14.39 0.661,47.51 -17.664,73.64 -24.097,34.35 -70.293,43.5 -70.293,43.5 0,0 -7.125,-46.55 16.973,-80.9 14.332,-20.44 36.43,-31.9 52.027,-37.88 l 106.934,-55.6 c -44.785,-4.57 -79.617,-37.87 -79.617,-37.87 0,0 40.133,-38.43 89.636,-38.43 34.411,0 64.25,18.55 79.274,29.87 l 94.008,-48.89 c -23.766,2.36 -52.379,1.31 -79.516,-9.77 -62.773,-25.64 -93.766,-95.14 -93.766,-95.14 0,0 70.782,-27.94 133.555,-2.3 49.602,20.25 79.274,67.78 89.578,86.88 l 257.102,-38.99 295.32,-154.45 248.18,-301.3 2.22,-2.7 5.93,-4.95 99.9,-83.37 1.87,-4.93 2.68,1.14 70.01,-58.42 4,-2.81 36.6,-26.08 -190.34,25.31 -6.38,0.84 -2.29,-0.09 -4.08,-0.15 0.02,0.05 -309.46,109.73 -34.55,38.55 c 18.7,16.04 66.14,62.05 76.79,124.15 13.33,77.74 -36.2,151.12 -36.2,151.12 0,0 -71.15,-52.68 -84.48,-130.43 -7.55,-44.03 5.06,-86.63 17.42,-115.32 l -184.84,206.17 -5.35,5.98 c 8.79,18.76 27.7,67.09 15.53,115.33 -15.53,61.59 -75.926,99.47 -75.926,99.47 0,0 -35.211,-61.99 -19.68,-123.58 9.75,-38.66 37.166,-67.96 56.236,-84.44 l -196.669,54.18 c 1.074,12.51 2.101,48.47 -17.473,76.37 -24.094,34.35 -70.289,43.5 -70.289,43.5 0,0 -7.125,-46.55 16.973,-80.9 8.761,-12.5 20.449,-21.62 31.773,-28.22 l -110.996,30.58 51.707,-22.4 c -13.933,5.74 -66.312,24.68 -115.766,8.03 -57.648,-19.41 -89.32,-79.88 -89.32,-79.88 0,0 61.793,-29.01 119.445,-9.6 57.579,19.38 89.239,79.72 89.313,79.86 l 110.246,-47.74 c -17.215,0.88 -36.781,-0.81 -55.469,-8.44 -50.23,-20.51 -75.031,-76.13 -75.031,-76.13 0,0 56.641,-22.35 106.871,-1.84 37.149,15.17 60.344,49.49 69.93,66.36 l 88.336,-38.25 -104.352,-55.51 -125.48,-0.9 127.504,-21.82 2.441,-0.42 3.465,1.53 135.761,59.66 103.87,-130.24 c -17.67,11.99 -40.84,23.52 -67.18,26.2 -59.36,6.04 -112.174,-35.14 -112.174,-35.14 0,0 43.434,-50.97 102.804,-57.01 46.5,-4.73 88.85,19.44 105.08,30.17 l 99.74,-125.06 4.73,-5.94 9.6,-4.5 111.71,-52.34 -137.88,-5.35 -4.33,-0.17 -1.06,-0.25 -45.27,-10.49 -190.63,80.53 -64.212,106.76 38.292,-100.25 c -9.882,6.05 -21.496,11.18 -34.39,13.33 -41.395,6.87 -80.281,-19.69 -80.281,-19.69 0,0 28.222,-37.69 69.613,-44.57 32.652,-5.42 63.664,9.93 75.338,16.66 l 132.87,-65.15 -206.993,-47.99 -137.086,73.3 c 10.062,20.74 35.844,82.53 20.336,144.03 -19.024,75.43 -92.992,121.82 -92.992,121.82 0,0 -43.125,-75.91 -24.102,-151.35 10.312,-40.89 36.73,-73.15 58.797,-94.21 l -74.473,39.82 c 6.172,1.64 9.93,3.08 9.93,3.08 0,0 -18.949,43.11 -57.711,59.18 -38.762,16.07 -82.652,-0.99 -82.652,-0.99 0,0 18.949,-43.11 57.711,-59.18 24.359,-10.1 50.734,-7.11 66.976,-3.5 l 221.625,-138.14 c -19.73,0.32 -41.422,-2.22 -62.273,-10.74 -62.774,-25.63 -93.766,-95.13 -93.766,-95.13 0,0 70.785,-27.94 133.559,-2.3 57.132,23.33 87.851,82.83 92.925,93.36 l 121.719,9.66 c -12.78,-6.6 -25.68,-15.61 -36.25,-27.91 -34.01,-39.58 -30.86,-98.07 -30.86,-98.07 0,0 58.3,5.7 92.31,45.28 24.16,28.12 29.54,65.68 30.65,85.14 l 96.8,7.68 134.41,-5.21 c -24.41,-18.55 -69.31,-59.08 -84.82,-116.05 -21.69,-79.69 22.57,-161.12 22.57,-161.12 0,0 79.43,47.76 101.12,127.45 16.66,61.2 -5.53,123.28 -16.75,148.86 l 170.06,-6.6 3.8,-1.78 0.66,1.61 37.84,-1.47 446.56,-98.68 107.93,-76.93 148.3,-310.12 c 0.7,-39.18 3.7,-85.52 12.52,-123.28 19.18,-82.22 -5.74,-298.68 -5.74,-298.68 l -11.41,-290.5 c 0,0 -21.22,-85 -29.44,-145.29 -8.22,-60.289 -44.3,-95.918 -44.3,-95.918 0,0 -81.85,-42.402 -111.17,-51.141 -36.57,-10.91 -115.06,-17.211 -148.39,-35.8 -27.98,-15.602 -91.03,-90.172 -91.03,-90.172 l 128.52,41.203 141.27,-2.641 c 0,0 24.38,-22.98 18.16,-36.73 -12.88,-28.461 -93.15,-83.289 -93.15,-83.289 0,0 152.47,17.449 198.05,39.117 37.49,17.84 72.09,64.742 113.28,69.953 19.79,2.5 83.64,-3.691 83.64,-3.691 0,0 20.3,-49.93 15.86,-66.422 -7.56,-28.137 -80.28,-84.489 -80.28,-84.489 l 161.96,42.329 83.01,-9.188 95.63,-7.09 c 0,0 -66.41,35.219 -85.31,51.438 -16.17,13.871 -36.99,37.34 -30.84,50.89 10.95,24.129 72.08,25.61 103.75,21.629 42.37,-5.316 162.92,-51.347 162.92,-51.347 l 104.47,-23.539 c 0,0 -67.22,35.98 -89.3,48.558 -22.58,12.871 -89.3,53.27 -89.3,53.27 0,0 87.05,6.89 115.87,3.879 34.92,-3.649 136.36,-33.649 136.36,-33.649 0,0 -105.43,80.211 -208.36,94 -47.89,6.41 -164.44,37.012 -168.42,94.77 -4.04,58.59 -39.93,349.49 -39.93,349.49 l -10.96,147.99 c 0,0 -6.06,202.33 10.38,276.33 2.36,10.62 4.92,20.98 7.55,31.2 l 90.17,239.47 156.14,148.66 446.55,98.67 37.85,1.47 0.66,-1.61 3.8,1.78 72.9,2.83 c 3.95,-23.14 19.83,-93.58 72.11,-137.49 63.24,-53.11 155.73,-47.09 155.73,-47.09 0,0 -10.04,92.14 -73.28,145.25 -28.6,24.02 -63.12,35.89 -92.42,41.74 l 191.55,7.44 111.84,-8.88 c 1.88,-20.52 8.39,-53.58 30.18,-78.94 34.01,-39.59 92.31,-45.28 92.31,-45.28 0,0 3.15,58.49 -30.86,98.07 -7.21,8.39 -15.53,15.18 -24.13,20.79 l 112.91,-8.96 c 10.27,-19.06 39.96,-66.67 89.62,-86.94 62.77,-25.64 133.55,2.3 133.55,2.3 0,0 -30.99,69.5 -93.76,95.13 -23.28,9.51 -47.65,11.63 -69.11,10.56 l 223.73,139.46 c 15.46,-3.99 44.8,-8.79 71.71,2.36 38.76,16.07 57.71,59.18 57.71,59.18 0,0 -43.9,17.06 -82.66,0.99 -38.76,-16.07 -57.71,-59.18 -57.71,-59.18 0,0 2.42,-0.92 6.5,-2.12 l -64.81,-34.66 c 20.59,20.99 43.21,51 52.57,88.09 19.02,75.43 -24.1,151.35 -24.1,151.35 0,0 -73.97,-46.39 -93,-121.82 -15.01,-59.55 8.64,-119.23 19.29,-141.8 l -150.61,-80.53 -206.99,47.99 145.45,71.32 c 9.7,-5.86 42.58,-23.59 77.33,-17.83 41.39,6.87 69.61,44.57 69.61,44.57 0,0 -38.89,26.56 -80.28,19.68 -21.71,-3.6 -39.73,-15.66 -52.02,-26.34 l 41.35,108.26 -64.21,-106.76 -190.63,-80.52 -45.27,10.49 -1.06,0.25 -4.33,0.17 -137.89,5.35 111.71,52.34 9.61,4.5 4.73,5.93 86.85,108.9 c 19.13,-11.63 68.92,-37.59 122.21,-30.12 68.04,9.55 115.78,70.09 115.78,70.09 0,0 -62.56,45.06 -130.59,35.52 -27.35,-3.84 -51.33,-15.94 -70.34,-29.01 l 108.23,135.71 135.76,-59.66 3.47,-1.53 2.44,0.42 127.5,21.82 -125.48,0.89 -104.35,55.52 102.31,44.3 c 9.2,-16.47 32.61,-51.93 70.52,-67.41 50.24,-20.51 106.88,1.84 106.88,1.84 0,0 -24.8,55.62 -75.03,76.13 -20.03,8.18 -41.03,9.49 -59.1,8.18 l 154.68,66.98 -99.93,-27.53 c 12.38,6.71 25.6,16.38 35.28,30.18 24.1,34.35 16.97,80.89 16.97,80.89 0,0 -46.19,-9.14 -70.29,-43.49 -20.16,-28.75 -18.47,-65.93 -17.38,-77.33 l -211.68,-58.31 c 18.95,16.73 44.9,45.32 54.34,82.75 15.53,61.59 -19.68,123.58 -19.68,123.58 0,0 -60.39,-37.88 -75.93,-99.47 -12.26,-48.64 7.07,-97.39 15.76,-115.81 l -3.34,-3.72 -195.33,-217.89 c 12.9,28.61 27.83,74.53 19.27,121.97 -14.01,77.63 -85.61,129.69 -85.61,129.69 0,0 -48.9,-73.8 -34.89,-151.43 11.48,-63.6 61.55,-109.98 79.3,-124.69 l -28.59,-31.89 -309.46,-109.73 0.02,-0.06 -4.09,0.16 -2.28,0.09 -6.38,-0.85 -190.33,-25.3 36.59,26.08 4,2.8 70.01,58.43 2.68,-1.15 1.86,4.94 99.91,83.37 5.93,4.95 2.22,2.7 248.18,301.29 290.53,152.41 4.79,2.05 269.48,40.86 2.79,0.43 0.68,0.35 c 11.38,-20.44 40.67,-65.08 88.3,-84.53 62.77,-25.64 133.56,2.3 133.56,2.3 0,0 -31,69.5 -93.77,95.13 -29.66,12.12 -61.02,12.22 -85.94,9.02 l 98.44,51.18 c 14.23,-11.08 45.22,-31.4 81.27,-31.4 49.5,0 89.63,38.42 89.63,38.42 0,0 -37.14,35.44 -84.02,38.16 l 97.81,50.86 c 12.37,3.34 46.13,14.64 65.56,42.34 24.09,34.35 16.97,80.89 16.97,80.89" /><path
         id="path26"
         style="fill:#100f0d;fill-opacity:1;fill-rule:nonzero;stroke:none"
         d="m 1242.76,3814.09 c 0,0 28.1,59.12 9.75,114.49 -18.35,55.37 -76.2,86.01 -76.2,86.01 0,0 -28.1,-59.12 -9.75,-114.49 18.35,-55.37 76.2,-86.01 76.2,-86.01" /><path
         id="path28"
         style="fill:#100f0d;fill-opacity:1;fill-rule:nonzero;stroke:none"
         d="m 1177.4,3343.56 c -54.99,-6.9 -94.21,-55.17 -94.21,-55.17 0,0 49.93,-37.09 104.92,-30.19 54.99,6.9 94.21,55.17 94.21,55.17 0,0 -49.93,37.09 -104.92,30.19" /></g></g></svg>
